# xmcd
#
# Track frame offsets:
#	150
#	21275
#	38049
#	55566
#	78795
#	93835
#	112009
#	122536
#	144251
#	159043
#	171178
#	187783
#	199492
#	219978
#
# Disc length: 3119 seconds
#
# Revision: 1
# Processed by: cddbd v1.5.1PL2 Copyright (c) Steve Scherf et al.
# Submitted via: audiograbber 1.80.04
#
DISCID=a60c2d0e
DTITLE=Alan Gerber - Blue Tube
DYEAR=1900
DGENRE=Blues
TTITLE0=Bad Boy
TTITLE1=Piece Of The Pie
TTITLE2=Get High
TTITLE3=Lunenburg County
TTITLE4=Blue Tube
TTITLE5=She Said He Said
TTITLE6=Letting Go
TTITLE7=Roll On
TTITLE8=Stuck On You
TTITLE9=Embarrassed
TTITLE10=Diggin' A Hole
TTITLE11=Valentine
TTITLE12=Miracle
TTITLE13=You Are My Sunshine
EXTD=
EXTT0=
EXTT1=
EXTT2=
EXTT3=
EXTT4=
EXTT5=
EXTT6=
EXTT7=
EXTT8=
EXTT9=
EXTT10=
EXTT11=
EXTT12=
EXTT13=
PLAYORDER=
